<svg version="1.1" id="Layer_1" xmlns="http://www.w3.org/2000/svg" xmlns:xlink="http://www.w3.org/1999/xlink" x="0px" y="0px"
	 width="100%" viewBox="0 0 346 344" enable-background="new 0 0 346 344" xml:space="preserve">
<path fill="#0E1624" opacity="1.000000" stroke="none" 
	d="
M1.000000,58.000000 
	C1.000000,39.018242 1.000000,20.036482 1.000005,1.055516 
	C116.333344,1.056309 231.666687,1.056309 347.000000,1.056309 
	C347.000000,18.429306 347.000000,35.745995 346.677917,53.412895 
	C343.717010,52.241161 341.078247,50.719212 338.286865,49.047001 
	C337.891754,48.552811 337.649231,48.208881 337.345703,47.499268 
	C333.631012,41.210831 329.977356,35.288082 326.198547,29.069857 
	C321.225037,24.461943 316.376740,20.149500 311.303314,15.555664 
	C304.052948,12.145625 297.027679,9.016981 289.679810,5.672792 
	C284.237946,4.712584 279.118652,3.967921 273.537109,3.143438 
	C267.049591,3.099550 261.024292,3.135481 254.534454,3.106564 
	C247.046539,3.084907 240.023163,3.128099 232.535812,3.106412 
	C226.381134,3.084811 220.690460,3.128090 214.537567,3.106439 
	C209.382797,3.084671 204.690231,3.127831 199.533203,3.106108 
	C192.045135,3.084524 185.021545,3.127824 177.533356,3.106394 
	C168.045486,3.084817 159.022186,3.127972 149.534241,3.106378 
	C140.046127,3.084771 131.022659,3.127913 121.534927,3.106122 
	C115.046898,3.084446 109.023148,3.127703 102.537277,3.105675 
	C97.383316,3.083665 92.691483,3.126941 87.539520,3.104850 
	C80.055984,3.479615 73.032570,3.919749 65.629028,4.350588 
	C53.587490,6.618805 43.153294,11.514718 33.851357,18.905771 
	C23.126942,27.427082 15.935539,38.451561 10.507922,51.053795 
	C7.108993,53.404556 4.054496,55.702278 1.000000,58.000000 
z"/>
<path fill="#0C1321" opacity="1.000000" stroke="none" 
	d="
M1.000000,58.468658 
	C4.054496,55.702278 7.108993,53.404556 10.475906,51.428833 
	C9.922798,55.501492 9.057273,59.252159 8.062658,63.401535 
	C7.677766,70.200027 7.421964,76.599800 7.099253,83.462280 
	C7.077129,88.949959 7.121913,93.974937 7.099840,99.463997 
	C7.077606,105.951729 7.122231,111.975388 7.099877,118.463539 
	C7.078226,127.951744 7.123551,136.975464 7.102402,146.463730 
	C7.080449,156.284988 7.124969,165.641708 7.103164,175.463028 
	C7.080934,183.618225 7.125031,191.308792 7.103038,199.463943 
	C7.080980,207.619186 7.125012,215.309860 7.103133,223.465057 
	C7.081253,231.952682 7.125284,239.975769 7.103512,248.463409 
	C7.087827,255.618454 7.137945,262.308929 7.132291,269.427185 
	C8.249782,276.112640 9.423045,282.370331 10.624315,288.987030 
	C13.695385,295.385101 16.738447,301.424194 19.883026,307.775421 
	C23.953009,312.408722 27.921474,316.729889 32.056023,321.346008 
	C37.780437,325.191498 43.338772,328.742096 49.022018,332.510529 
	C49.431843,332.904175 49.716759,333.079987 50.056931,333.592773 
	C52.741459,337.619812 55.370728,341.309906 57.999996,345.000000 
	C39.024185,345.000000 20.048370,345.000000 1.000000,345.000000 
	C1.000000,249.645782 1.000000,154.291550 1.000000,58.468658 
z"/>
<path fill="#0C1322" opacity="1.000000" stroke="none" 
	d="
M338.439453,49.197266 
	C341.078247,50.719212 343.717010,52.241161 346.677917,53.881554 
	C347.000000,150.876877 347.000000,247.753738 347.000000,345.000000 
	C329.314148,345.000000 311.625732,345.000000 293.520935,344.649628 
	C294.287262,342.777283 295.505951,341.281677 296.644470,339.727386 
	C298.457367,337.252319 300.216888,334.738129 302.273499,332.012329 
	C328.387115,317.907135 342.249756,296.582794 342.899231,266.536072 
	C342.920898,256.381622 342.875854,246.691666 342.897980,236.537201 
	C342.920197,227.715744 342.875214,219.358810 342.897034,210.539795 
	C342.919220,205.385529 342.874664,200.693344 342.896423,195.567337 
	C342.918671,193.089172 342.874603,191.044846 342.896790,188.554382 
	C342.918793,185.405548 342.874512,182.702850 342.896606,179.538132 
	C342.918701,174.384598 342.874451,169.693069 342.896545,164.537155 
	C342.918793,157.715576 342.874695,151.358398 342.896912,144.536621 
	C342.919434,135.048447 342.875641,126.024857 342.898438,116.536713 
	C342.920532,107.382072 342.876068,98.691994 342.898254,89.537872 
	C342.615021,81.716225 342.265167,74.358612 342.053894,66.587509 
	C340.941498,60.515099 339.690460,54.856182 338.439453,49.197266 
z"/>
<path fill="#0A101F" opacity="1.000000" stroke="none" 
	d="
M301.998993,332.240540 
	C300.216888,334.738129 298.457367,337.252319 296.644470,339.727386 
	C295.505951,341.281677 294.287262,342.777283 293.052277,344.649628 
	C214.979111,345.000000 136.958206,345.000000 58.468655,345.000000 
	C55.370728,341.309906 52.741459,337.619812 50.409595,333.616150 
	C55.466812,334.656433 60.226627,336.010284 65.382668,337.551605 
	C70.185883,338.103485 74.592865,338.467896 79.450012,338.899139 
	C82.934029,338.921753 85.967880,338.877502 89.463623,338.899719 
	C94.617279,338.920715 99.309044,338.875214 104.465164,338.896606 
	C112.286728,338.918549 119.643936,338.873596 127.465561,338.895142 
	C135.953384,338.917114 143.976776,338.872620 152.464340,338.894562 
	C158.952728,338.916748 164.976959,338.872498 171.463089,338.894928 
	C176.616531,338.917206 181.308075,338.872833 186.445724,338.895264 
	C189.594589,338.917389 192.297363,338.872742 195.433868,338.895142 
	C197.912170,338.917633 199.956711,338.873077 202.463104,338.895630 
	C207.616943,338.918152 212.308929,338.873566 217.465302,338.895874 
	C226.286743,338.918518 234.643814,338.874268 243.465302,338.897003 
	C253.619431,338.913483 263.309143,338.862946 273.439148,338.869812 
	C279.931549,337.885529 286.028351,337.046112 292.018524,335.723846 
	C295.435211,334.969635 298.677948,333.427734 301.998993,332.240540 
z"/>
<path fill="#6058E7" opacity="1.000000" stroke="none" 
	d="
M7.169492,174.998413 
	C7.124969,165.641708 7.080449,156.284988 7.420799,146.351990 
	C12.044045,141.843567 16.385450,138.016068 20.503189,133.961411 
	C39.595169,115.161919 58.672462,96.347015 77.664581,77.446754 
	C98.894051,56.319988 120.067360,35.136253 141.157028,13.870129 
	C144.401505,10.598513 147.066101,6.751844 149.998886,3.171126 
	C159.022186,3.127972 168.045486,3.084817 177.437805,3.434493 
	C173.587250,8.668585 169.614044,13.754934 165.094818,18.298141 
	C156.674438,26.763212 147.784332,34.761074 139.364563,43.226734 
	C125.216049,57.452374 111.336342,71.944969 97.242126,86.225143 
	C85.242386,98.383202 73.070808,110.371590 61.055252,122.514198 
	C59.461384,124.124931 58.339569,126.202782 56.665825,128.173431 
	C55.512081,129.188736 54.691643,130.094879 53.556755,131.111511 
	C51.574524,132.568405 49.772701,133.779907 48.260197,135.282608 
	C36.364994,147.100861 24.550146,159.000061 12.638781,170.801865 
	C11.019420,172.406357 9.002397,173.609467 7.169492,174.998413 
z"/>
<path fill="#6552E8" opacity="1.000000" stroke="none" 
	d="
M149.534241,3.106377 
	C147.066101,6.751844 144.401505,10.598513 141.157028,13.870129 
	C120.067360,35.136253 98.894051,56.319988 77.664581,77.446754 
	C58.672462,96.347015 39.595169,115.161919 20.503189,133.961411 
	C16.385450,138.016068 12.044045,141.843567 7.487273,145.887451 
	C7.123551,136.975464 7.078226,127.951744 7.414118,118.350555 
	C14.087493,111.921814 20.460512,106.154633 26.652689,100.199417 
	C35.733990,91.465630 44.781132,82.692101 53.669765,73.763222 
	C65.827202,61.550755 77.744606,49.099209 89.913086,36.897926 
	C98.574051,28.213598 107.565575,19.858755 116.217628,11.165828 
	C118.509125,8.863501 120.091324,5.855199 121.999207,3.171054 
	C131.022659,3.127913 140.046127,3.084771 149.534241,3.106377 
z"/>
<path fill="#4277E0" opacity="1.000000" stroke="none" 
	d="
M311.528442,15.837057 
	C316.376740,20.149500 321.225037,24.461943 325.996857,29.392029 
	C324.255615,31.864370 322.672791,33.800907 320.913940,35.561626 
	C289.607819,66.901237 258.273010,98.212128 226.975906,129.560699 
	C225.106186,131.433487 223.501389,133.570786 221.442825,135.437302 
	C214.430115,130.780624 207.057159,128.635315 199.053116,128.485458 
	C201.647690,124.914673 203.897751,121.395500 206.777344,118.503067 
	C238.622574,86.515671 270.539856,54.599762 302.528992,22.756287 
	C305.188934,20.108454 308.512970,18.127728 311.528442,15.837057 
z"/>
<path fill="#4771E2" opacity="1.000000" stroke="none" 
	d="
M311.303314,15.555662 
	C308.512970,18.127728 305.188934,20.108454 302.528992,22.756287 
	C270.539856,54.599762 238.622574,86.515671 206.777344,118.503067 
	C203.897751,121.395500 201.647690,124.914673 198.640900,128.463165 
	C189.451157,128.545380 180.725784,128.307190 172.102905,127.740150 
	C173.757706,125.486824 175.148987,123.401627 176.886002,121.661568 
	C212.990448,85.494156 249.155045,49.386761 285.214233,13.174383 
	C287.223206,11.156873 288.424957,8.335527 290.002441,5.888334 
	C297.027679,9.016981 304.052948,12.145625 311.303314,15.555662 
z"/>
<path fill="#5266E4" opacity="1.000000" stroke="none" 
	d="
M232.999802,3.171294 
	C240.023163,3.128099 247.046539,3.084907 254.482269,3.449018 
	C253.713516,5.619985 252.789963,7.645977 251.306854,9.102046 
	C244.785568,15.504481 237.962296,21.602215 231.508240,28.069620 
	C218.951370,40.652462 206.639328,53.479546 194.090118,66.070129 
	C185.054047,75.135986 175.752304,83.936409 166.652390,92.939476 
	C156.731537,102.754761 146.865952,112.627029 137.078903,122.575417 
	C135.373291,124.309151 134.175308,126.542305 132.292587,128.501587 
	C124.894936,128.329056 117.947563,128.199722 111.102661,127.741440 
	C112.756714,125.488388 114.147034,123.403305 115.883575,121.663864 
	C153.390442,84.094627 190.944809,46.572796 228.445831,8.997721 
	C230.174393,7.265733 231.491211,5.122821 232.999802,3.171294 
z"/>
<path fill="#3D7DDF" opacity="1.000000" stroke="none" 
	d="
M221.773315,135.585007 
	C223.501389,133.570786 225.106186,131.433487 226.975906,129.560699 
	C258.273010,98.212128 289.607819,66.901237 320.913940,35.561626 
	C322.672791,33.800907 324.255615,31.864370 326.122070,29.687502 
	C329.977356,35.288082 333.631012,41.210831 336.986572,47.610310 
	C333.363129,50.986290 329.907715,53.750698 326.736847,56.810070 
	C317.199646,66.011894 307.729645,75.284523 298.315857,84.612747 
	C288.432861,94.405991 278.541229,104.194817 268.864014,114.189514 
	C264.638977,118.553146 260.938324,123.424500 256.554199,128.168549 
	C252.863663,128.271805 249.618439,128.271805 245.878082,128.271805 
	C245.878082,133.430649 245.878082,137.714645 245.544464,142.068726 
	C241.189377,145.092300 237.167877,148.045776 232.947845,150.703995 
	C229.090637,145.467499 225.431976,140.526245 221.773315,135.585007 
z"/>
<path fill="#5662E5" opacity="1.000000" stroke="none" 
	d="
M232.535812,3.106414 
	C231.491211,5.122821 230.174393,7.265733 228.445831,8.997721 
	C190.944809,46.572796 153.390442,84.094627 115.883575,121.663864 
	C114.147034,123.403305 112.756714,125.488388 110.751198,127.847961 
	C106.315063,128.217453 107.072914,131.960144 105.372292,134.051910 
	C103.287407,135.309692 101.319939,136.289597 99.823700,137.751724 
	C92.561363,144.848450 85.465149,152.115051 78.212082,159.221466 
	C76.704620,160.698425 74.781738,161.751404 72.965614,162.538513 
	C72.937416,156.384827 72.993912,150.692413 73.377838,144.893402 
	C75.372833,143.713287 77.287216,142.889923 78.668816,141.526611 
	C89.430695,130.907120 100.139992,120.233070 110.768097,109.479561 
	C123.260841,96.839409 135.574997,84.022064 148.120422,71.434868 
	C156.921738,62.604252 166.038849,54.089275 174.909103,45.326218 
	C185.428299,34.934128 195.915710,24.506880 206.240250,13.922547 
	C209.455200,10.626691 212.096100,6.770860 214.999771,3.171370 
	C220.690460,3.128090 226.381134,3.084811 232.535812,3.106414 
z"/>
<path fill="#4E6AE3" opacity="1.000000" stroke="none" 
	d="
M132.742859,128.544785 
	C134.175308,126.542305 135.373291,124.309151 137.078903,122.575417 
	C146.865952,112.627029 156.731537,102.754761 166.652390,92.939476 
	C175.752304,83.936409 185.054047,75.135986 194.090118,66.070129 
	C206.639328,53.479546 218.951370,40.652462 231.508240,28.069620 
	C237.962296,21.602215 244.785568,15.504481 251.306854,9.102046 
	C252.789963,7.645977 253.713516,5.619985 254.946823,3.513867 
	C261.024292,3.135481 267.049591,3.099550 273.514771,3.502542 
	C273.384308,5.285203 273.101074,6.879436 272.188995,7.925185 
	C269.570221,10.927775 266.747681,13.759565 263.915527,16.568018 
	C244.646606,35.675724 225.278961,54.684498 206.091156,73.873177 
	C186.667770,93.297493 167.423569,112.900909 148.079224,132.404404 
	C144.696106,135.815353 141.206024,139.120239 137.520905,142.180603 
	C135.765244,137.439667 134.254059,132.992218 132.742859,128.544785 
z"/>
<path fill="#5B5CE6" opacity="1.000000" stroke="none" 
	d="
M56.999130,128.064301 
	C58.339569,126.202782 59.461384,124.124931 61.055252,122.514198 
	C73.070808,110.371590 85.242386,98.383202 97.242126,86.225143 
	C111.336342,71.944969 125.216049,57.452374 139.364563,43.226734 
	C147.784332,34.761074 156.674438,26.763212 165.094818,18.298141 
	C169.614044,13.754934 173.587250,8.668585 177.902374,3.499223 
	C185.021545,3.127824 192.045135,3.084524 199.421356,3.417328 
	C198.536224,5.341874 197.442841,7.037938 196.036072,8.413532 
	C189.494766,14.809937 182.743256,20.994949 176.295883,27.483105 
	C163.639648,40.219414 151.205490,53.176380 138.551392,65.914848 
	C120.727745,83.857338 102.826378,101.723228 84.865837,119.528664 
	C81.134254,123.228012 76.998932,126.520096 72.859406,129.659180 
	C67.445801,128.900421 62.222466,128.482361 56.999130,128.064301 
z"/>
<path fill="#4B6DE2" opacity="1.000000" stroke="none" 
	d="
M137.765350,142.474121 
	C141.206024,139.120239 144.696106,135.815353 148.079224,132.404404 
	C167.423569,112.900909 186.667770,93.297493 206.091156,73.873177 
	C225.278961,54.684498 244.646606,35.675724 263.915527,16.568018 
	C266.747681,13.759565 269.570221,10.927775 272.188995,7.925185 
	C273.101074,6.879436 273.384308,5.285203 273.977051,3.582362 
	C279.118652,3.967921 284.237946,4.712584 289.679810,5.672790 
	C288.424957,8.335527 287.223206,11.156873 285.214233,13.174383 
	C249.155045,49.386761 212.990448,85.494156 176.886002,121.661568 
	C175.148987,123.401627 173.757706,125.486824 171.730423,127.845711 
	C167.345642,127.860413 168.276581,130.906189 167.531342,133.050842 
	C164.497284,135.194809 161.687256,137.150421 159.144943,139.407562 
	C153.379639,144.526169 147.746170,149.793274 141.833649,154.707367 
	C140.327255,150.434525 139.046295,146.454315 137.765350,142.474121 
z"/>
<path fill="#585FE5" opacity="1.000000" stroke="none" 
	d="
M73.049667,129.999863 
	C76.998932,126.520096 81.134254,123.228012 84.865837,119.528664 
	C102.826378,101.723228 120.727745,83.857338 138.551392,65.914848 
	C151.205490,53.176380 163.639648,40.219414 176.295883,27.483105 
	C182.743256,20.994949 189.494766,14.809937 196.036072,8.413532 
	C197.442841,7.037938 198.536224,5.341874 199.885834,3.482212 
	C204.690231,3.127831 209.382797,3.084671 214.537567,3.106441 
	C212.096100,6.770860 209.455200,10.626691 206.240250,13.922547 
	C195.915710,24.506880 185.428299,34.934128 174.909103,45.326218 
	C166.038849,54.089275 156.921738,62.604252 148.120422,71.434868 
	C135.574997,84.022064 123.260841,96.839409 110.768097,109.479561 
	C100.139992,120.233070 89.430695,130.907120 78.668816,141.526611 
	C77.287216,142.889923 75.372833,143.713287 73.292938,144.433929 
	C72.936966,139.387329 72.993317,134.693588 73.049667,129.999863 
z"/>
<path fill="#6A4DE9" opacity="1.000000" stroke="none" 
	d="
M121.534927,3.106122 
	C120.091324,5.855199 118.509125,8.863501 116.217628,11.165828 
	C107.565575,19.858755 98.574051,28.213598 89.913086,36.897926 
	C77.744606,49.099209 65.827202,61.550755 53.669765,73.763222 
	C44.781132,82.692101 35.733990,91.465630 26.652689,100.199417 
	C20.460512,106.154633 14.087493,111.921814 7.481095,117.886063 
	C7.122231,111.975388 7.077606,105.951729 7.442955,99.411621 
	C10.183287,97.103401 12.742455,95.540123 14.801913,93.477829 
	C21.485847,86.784714 27.889587,79.811615 34.579319,73.124496 
	C46.550407,61.158096 58.650028,49.320259 70.698425,37.431217 
	C77.789680,30.433764 85.027153,23.576984 91.925240,16.394165 
	C95.898384,12.257023 99.326141,7.596108 102.999390,3.170959 
	C109.023148,3.127703 115.046898,3.084446 121.534927,3.106122 
z"/>
<path fill="#3881DE" opacity="1.000000" stroke="none" 
	d="
M256.999512,128.065277 
	C260.938324,123.424500 264.638977,118.553146 268.864014,114.189514 
	C278.541229,104.194817 288.432861,94.405991 298.315857,84.612747 
	C307.729645,75.284523 317.199646,66.011894 326.736847,56.810070 
	C329.907715,53.750698 333.363129,50.986290 337.047607,47.975998 
	C337.649231,48.208881 337.891754,48.552811 338.286865,49.047001 
	C339.690460,54.856182 340.941498,60.515099 341.705200,66.638016 
	C339.687012,68.032692 337.930267,68.727005 336.665558,69.936043 
	C331.878235,74.512604 327.192688,79.199898 322.575958,83.949692 
	C314.818848,91.930405 307.237701,100.083839 299.410004,107.993866 
	C289.484650,118.023605 279.418793,127.915405 269.318115,137.768860 
	C268.216949,138.843048 266.486359,139.272034 264.960999,139.549988 
	C264.856659,138.281906 264.827057,137.464203 264.823395,136.646362 
	C264.788177,128.775726 264.789429,128.775726 256.999512,128.065277 
z"/>
<path fill="#6C4BE9" opacity="1.000000" stroke="none" 
	d="
M102.537270,3.105673 
	C99.326141,7.596108 95.898384,12.257023 91.925240,16.394165 
	C85.027153,23.576984 77.789680,30.433764 70.698425,37.431217 
	C58.650028,49.320259 46.550407,61.158096 34.579319,73.124496 
	C27.889587,79.811615 21.485847,86.784714 14.801913,93.477829 
	C12.742455,95.540123 10.183287,97.103401 7.509814,98.947548 
	C7.121913,93.974937 7.077129,88.949959 7.442074,83.410118 
	C9.733657,81.597565 11.865676,80.551193 13.459804,78.964432 
	C37.073689,55.459660 60.628357,31.895304 84.147133,8.295315 
	C85.641182,6.796103 86.724991,4.888066 87.999649,3.170218 
	C92.691483,3.126941 97.383316,3.083665 102.537270,3.105673 
z"/>
<path fill="#6F47EA" opacity="1.000000" stroke="none" 
	d="
M87.539520,3.104850 
	C86.724991,4.888066 85.641182,6.796103 84.147133,8.295315 
	C60.628357,31.895304 37.073689,55.459660 13.459804,78.964432 
	C11.865676,80.551193 9.733657,81.597565 7.508983,82.947418 
	C7.421964,76.599800 7.677766,70.200027 8.403776,63.348572 
	C10.511842,61.834141 12.394245,61.017670 13.750316,59.671139 
	C30.117996,43.418629 46.452129,27.131414 62.649345,10.709585 
	C64.259789,9.076813 64.912132,6.499052 66.009155,4.359882 
	C73.032570,3.919749 80.055984,3.479615 87.539520,3.104850 
z"/>
<path fill="#7143E8" opacity="1.000000" stroke="none" 
	d="
M65.629028,4.350588 
	C64.912132,6.499052 64.259789,9.076813 62.649345,10.709585 
	C46.452129,27.131414 30.117996,43.418629 13.750316,59.671139 
	C12.394245,61.017670 10.511842,61.834141 8.532866,62.949860 
	C9.057273,59.252159 9.922798,55.501492 10.820339,51.375790 
	C15.935539,38.451561 23.126942,27.427082 33.851357,18.905771 
	C43.153294,11.514718 53.587490,6.618805 65.629028,4.350588 
z"/>
<path fill="#3D7CDF" opacity="1.000000" stroke="none" 
	d="
M48.897110,332.292694 
	C43.338772,328.742096 37.780437,325.191498 32.338104,321.156006 
	C41.227268,312.348206 50.067047,304.093964 58.743511,295.671448 
	C62.665791,291.864014 66.152809,287.610809 70.032082,283.755859 
	C77.196968,276.635864 84.602585,269.756989 91.727417,262.598053 
	C99.203911,255.085785 106.404869,247.300003 113.841827,239.747559 
	C123.250542,230.192734 132.798630,220.775208 142.221375,211.234070 
	C143.355927,210.085297 144.084320,208.535385 145.461639,207.105621 
	C150.195709,207.039856 154.469086,207.039856 159.144501,207.039856 
	C157.933258,202.612564 156.897858,198.828003 156.195770,194.936661 
	C157.949509,193.788834 159.343628,192.709427 160.796249,191.715515 
	C163.136139,190.114548 165.514603,188.569962 167.949677,187.464859 
	C168.036377,193.075882 167.924255,198.229202 168.151993,203.367432 
	C168.209305,204.660492 169.355240,205.905304 169.888245,207.483475 
	C168.891602,208.986618 168.136917,210.306412 167.104065,211.351227 
	C153.431763,225.182373 139.767181,239.021744 126.008423,252.766708 
	C101.547684,277.202881 76.997665,301.549774 52.584888,326.033600 
	C50.928864,327.694427 50.106956,330.186981 48.897110,332.292694 
z"/>
<path fill="#4277E0" opacity="1.000000" stroke="none" 
	d="
M145.000961,207.171402 
	C144.084320,208.535385 143.355927,210.085297 142.221375,211.234070 
	C132.798630,220.775208 123.250542,230.192734 113.841827,239.747559 
	C106.404869,247.300003 99.203911,255.085785 91.727417,262.598053 
	C84.602585,269.756989 77.196968,276.635864 70.032082,283.755859 
	C66.152809,287.610809 62.665791,291.864014 58.743511,295.671448 
	C50.067047,304.093964 41.227268,312.348206 32.172020,320.861084 
	C27.921474,316.729889 23.953009,312.408722 20.077202,307.465698 
	C21.254135,305.588867 22.264267,304.259796 23.433481,303.089691 
	C58.564175,267.932404 93.700890,232.781113 128.887970,197.680313 
	C130.371613,196.200302 132.346024,195.212265 134.286377,194.297974 
	C135.220306,196.569199 136.284271,198.481674 136.634232,200.516907 
	C137.467575,205.363419 139.701324,208.103500 145.000961,207.171402 
z"/>
<path fill="#4772E1" opacity="1.000000" stroke="none" 
	d="
M134.091812,193.995026 
	C132.346024,195.212265 130.371613,196.200302 128.887970,197.680313 
	C93.700890,232.781113 58.564175,267.932404 23.433481,303.089691 
	C22.264267,304.259796 21.254135,305.588867 19.975685,307.153564 
	C16.738447,301.424194 13.695385,295.385101 10.887391,288.708099 
	C36.479977,262.811981 61.855045,237.571304 87.145241,212.245880 
	C88.466270,210.922989 89.065178,208.879013 90.456154,207.104736 
	C92.905548,207.027908 94.936813,206.765915 96.884697,207.058655 
	C100.911896,207.663910 103.011299,206.170364 103.779999,202.128250 
	C104.365730,199.048264 105.256149,195.955048 106.550064,193.113144 
	C107.132446,191.834015 108.996292,190.387970 110.335114,190.330429 
	C116.968346,190.045303 123.621185,190.256516 130.265488,190.169174 
	C133.003021,190.133194 134.332443,191.201920 134.091812,193.995026 
z"/>
<path fill="#3980DF" opacity="1.000000" stroke="none" 
	d="
M49.022018,332.510529 
	C50.106956,330.186981 50.928864,327.694427 52.584888,326.033600 
	C76.997665,301.549774 101.547684,277.202881 126.008423,252.766708 
	C139.767181,239.021744 153.431763,225.182373 167.104065,211.351227 
	C168.136917,210.306412 168.891602,208.986618 170.352661,207.417633 
	C177.620010,207.084351 184.310287,207.128113 190.947113,207.515503 
	C186.014771,213.178131 181.219406,218.577026 176.231384,223.791656 
	C172.005707,228.209335 167.521011,232.378006 163.216095,236.721436 
	C157.155548,242.836227 151.177979,249.033218 145.121887,255.152481 
	C140.241928,260.083374 135.307968,264.961029 130.380203,269.844360 
	C124.264557,275.904877 118.121246,281.937500 112.007713,288.000122 
	C107.665291,292.306366 103.356453,296.646454 99.025307,300.964050 
	C92.578865,307.390381 85.960381,313.654510 79.727226,320.281250 
	C74.578865,325.754761 69.882874,331.653717 64.986435,337.364166 
	C60.226627,336.010284 55.466812,334.656433 50.354336,333.279175 
	C49.716759,333.079987 49.431843,332.904175 49.022018,332.510529 
z"/>
<path fill="#4B6DE2" opacity="1.000000" stroke="none" 
	d="
M90.000275,207.170746 
	C89.065178,208.879013 88.466270,210.922989 87.145241,212.245880 
	C61.855045,237.571304 36.479977,262.811981 10.859385,288.349121 
	C9.423045,282.370331 8.249782,276.112640 7.442231,269.314209 
	C11.821338,265.324127 16.067526,262.108429 19.806549,258.383636 
	C33.666180,244.576752 47.401924,230.644379 61.078785,216.656082 
	C63.948975,213.720520 66.371460,210.347229 69.403992,207.109665 
	C74.853432,207.154892 71.934456,202.997131 73.370155,200.891876 
	C77.762680,198.188858 81.832024,195.594193 85.898239,193.369522 
	C84.410713,198.051300 82.926315,202.363083 81.271202,207.170746 
	C84.435364,207.170746 87.217827,207.170746 90.000275,207.170746 
z"/>
<path fill="#5B5CE6" opacity="1.000000" stroke="none" 
	d="
M7.103166,175.463028 
	C9.002397,173.609467 11.019420,172.406357 12.638781,170.801865 
	C24.550146,159.000061 36.364994,147.100861 48.260197,135.282608 
	C49.772701,133.779907 51.574524,132.568405 53.629486,131.575104 
	C53.968182,139.952148 53.919701,147.976089 53.556789,156.110657 
	C51.575569,157.566910 49.775005,158.777878 48.263226,160.279587 
	C36.593754,171.871353 25.026222,183.566208 13.297870,195.097687 
	C11.608924,196.758270 9.229184,197.716248 7.169128,198.999374 
	C7.125031,191.308792 7.080934,183.618225 7.103166,175.463028 
z"/>
<path fill="#5365E4" opacity="1.000000" stroke="none" 
	d="
M7.169314,247.998856 
	C7.125284,239.975769 7.081253,231.952682 7.445747,223.412643 
	C9.731941,221.601242 11.850646,220.550949 13.448656,218.973251 
	C24.917545,207.650101 36.233017,196.171341 47.729687,184.876846 
	C49.417419,183.218796 51.806461,182.274597 53.943436,181.463867 
	C53.967674,189.618332 53.919487,197.309036 53.540318,205.093506 
	C51.066921,206.697784 48.666500,207.946442 46.824203,209.761597 
	C35.366497,221.050507 24.059834,232.492599 12.630292,243.810394 
	C11.013145,245.411728 8.999459,246.612610 7.169314,247.998856 
z"/>
<path fill="#5761E5" opacity="1.000000" stroke="none" 
	d="
M53.871017,181.000122 
	C51.806461,182.274597 49.417419,183.218796 47.729687,184.876846 
	C36.233017,196.171341 24.917545,207.650101 13.448656,218.973251 
	C11.850646,220.550949 9.731941,221.601242 7.511659,222.948120 
	C7.125012,215.309860 7.080980,207.619186 7.103039,199.463943 
	C9.229184,197.716248 11.608924,196.758270 13.297870,195.097687 
	C25.026222,183.566208 36.593754,171.871353 48.263226,160.279587 
	C49.775005,158.777878 51.575569,157.566910 53.629456,156.574371 
	C53.968040,164.951706 53.919529,172.975906 53.871017,181.000122 
z"/>
<path fill="#4F6AE3" opacity="1.000000" stroke="none" 
	d="
M7.103510,248.463409 
	C8.999459,246.612610 11.013145,245.411728 12.630292,243.810394 
	C24.059834,232.492599 35.366497,221.050507 46.824203,209.761597 
	C48.666500,207.946442 51.066921,206.697784 53.651306,205.507751 
	C55.349735,206.222992 56.591370,206.891724 57.865448,206.960648 
	C61.570087,207.161072 65.287720,207.121231 69.000244,207.175644 
	C66.371460,210.347229 63.948975,213.720520 61.078785,216.656082 
	C47.401924,230.644379 33.666180,244.576752 19.806549,258.383636 
	C16.067526,262.108429 11.821338,265.324127 7.498004,268.886475 
	C7.137945,262.308929 7.087827,255.618454 7.103510,248.463409 
z"/>
<path fill="#1BA0D8" opacity="1.000000" stroke="none" 
	d="
M243.000885,338.830017 
	C234.643814,338.874268 226.286743,338.918518 217.578064,338.583588 
	C222.977814,331.361847 228.412033,324.218201 234.555084,317.747467 
	C243.715698,308.098236 253.403488,298.950897 262.813904,289.536926 
	C268.570984,283.777618 274.186554,277.876892 279.939117,272.113007 
	C295.919373,256.101318 311.874420,240.063507 327.981140,224.179733 
	C332.686584,219.539444 337.867340,215.381104 342.830231,211.001877 
	C342.875214,219.358810 342.920197,227.715744 342.586609,236.649078 
	C340.777374,238.345291 339.212250,239.330414 337.935730,240.604660 
	C309.405975,269.083221 280.847656,297.533813 252.477997,326.171295 
	C248.803635,329.880371 246.135239,334.585999 243.000885,338.830017 
z"/>
<path fill="#15A5D7" opacity="1.000000" stroke="none" 
	d="
M243.465302,338.897034 
	C246.135239,334.585999 248.803635,329.880371 252.477997,326.171295 
	C280.847656,297.533813 309.405975,269.083221 337.935730,240.604660 
	C339.212250,239.330414 340.777374,238.345291 342.519409,237.113602 
	C342.875854,246.691666 342.920898,256.381622 342.586609,266.648682 
	C335.627411,273.262665 328.873077,279.122131 322.509064,285.378601 
	C313.276978,294.454742 304.311401,303.802612 295.261719,313.063446 
	C288.882355,319.591675 282.461639,326.084198 276.264709,332.782593 
	C274.760712,334.408295 274.065796,336.782471 272.998840,338.812439 
	C263.309143,338.862946 253.619431,338.913483 243.465302,338.897034 
z"/>
<path fill="#2397DA" opacity="1.000000" stroke="none" 
	d="
M185.999634,338.828430 
	C181.308075,338.872833 176.616531,338.917206 171.575958,338.582458 
	C175.041092,333.412384 178.443375,328.212097 182.734146,323.894806 
	C219.227951,287.175354 255.901474,250.634537 292.438904,213.958267 
	C294.341736,212.048203 295.498169,209.394547 297.143616,206.975159 
	C297.285187,206.863235 297.645599,206.844101 297.995728,206.775543 
	C300.187347,205.347794 302.227936,204.189880 303.838287,202.597000 
	C315.054779,191.502533 326.155640,180.291168 337.367493,169.191925 
	C338.985504,167.590179 340.999481,166.388412 342.830200,165.001541 
	C342.874451,169.693069 342.918701,174.384598 342.554016,179.590424 
	C340.499664,181.167923 338.601227,181.977615 337.245483,183.330948 
	C289.730469,230.759796 242.218964,278.192535 194.888870,325.805542 
	C191.245712,329.470490 188.931534,334.456482 185.999634,338.828430 
z"/>
<path fill="#308ADD" opacity="1.000000" stroke="none" 
	d="
M342.831604,90.001907 
	C342.876068,98.691994 342.920532,107.382072 342.587006,116.648621 
	C340.897095,118.226395 339.451324,119.093483 338.293152,120.248878 
	C316.262360,142.225998 294.244965,164.216705 272.308228,186.287506 
	C270.863800,187.740753 270.088684,189.859222 268.576324,191.747269 
	C267.043060,190.866104 264.997925,189.926910 264.975922,188.942459 
	C264.790009,180.633255 264.973785,172.315796 265.367004,163.893555 
	C275.584137,154.475555 285.570282,145.257477 295.342407,135.817856 
	C300.831329,130.515717 305.919800,124.801399 311.273682,119.356346 
	C317.199280,113.329826 323.091400,107.259872 329.246887,101.473457 
	C333.559082,97.419807 338.288483,93.809959 342.831604,90.001907 
z"/>
<path fill="#1F9CD9" opacity="1.000000" stroke="none" 
	d="
M342.897034,210.539795 
	C337.867340,215.381104 332.686584,219.539444 327.981140,224.179733 
	C311.874420,240.063507 295.919373,256.101318 279.939117,272.113007 
	C274.186554,277.876892 268.570984,283.777618 262.813904,289.536926 
	C253.403488,298.950897 243.715698,308.098236 234.555084,317.747467 
	C228.412033,324.218201 222.977814,331.361847 217.113678,338.516693 
	C212.308929,338.873566 207.616943,338.918152 202.575897,338.583130 
	C205.454269,333.999542 208.264999,329.380798 211.972977,325.654999 
	C253.795044,283.631897 295.747925,241.738922 337.705627,199.851013 
	C339.202759,198.356369 341.112579,197.275085 342.830078,196.001160 
	C342.874664,200.693344 342.919220,205.385529 342.897034,210.539795 
z"/>
<path fill="#3485DE" opacity="1.000000" stroke="none" 
	d="
M342.898224,89.537872 
	C338.288483,93.809959 333.559082,97.419807 329.246887,101.473457 
	C323.091400,107.259872 317.199280,113.329826 311.273682,119.356346 
	C305.919800,124.801399 300.831329,130.515717 295.342407,135.817856 
	C285.570282,145.257477 275.584137,154.475555 265.280090,163.431839 
	C264.931000,155.385025 264.989349,147.692657 265.047729,140.000290 
	C266.486359,139.272034 268.216949,138.843048 269.318115,137.768860 
	C279.418793,127.915405 289.484650,118.023605 299.410004,107.993866 
	C307.237701,100.083839 314.818848,91.930405 322.575958,83.949692 
	C327.192688,79.199898 331.878235,74.512604 336.665558,69.936043 
	C337.930267,68.727005 339.687012,68.032692 341.566559,67.051514 
	C342.265167,74.358612 342.615021,81.716225 342.898224,89.537872 
z"/>
<path fill="#2B8FDC" opacity="1.000000" stroke="none" 
	d="
M269.002258,191.668259 
	C270.088684,189.859222 270.863800,187.740753 272.308228,186.287506 
	C294.244965,164.216705 316.262360,142.225998 338.293152,120.248878 
	C339.451324,119.093483 340.897095,118.226395 342.520386,117.113174 
	C342.875641,126.024857 342.919434,135.048447 342.579285,144.647278 
	C338.528809,148.282974 334.653717,151.128540 331.236237,154.445557 
	C322.218384,163.198242 313.259277,172.021820 304.577667,181.104782 
	C301.595276,184.225052 299.503906,188.197006 296.537842,191.816376 
	C287.047546,191.791336 278.024902,191.729797 269.002258,191.668259 
z"/>
<path fill="#10AAD5" opacity="1.000000" stroke="none" 
	d="
M273.439148,338.869812 
	C274.065796,336.782471 274.760712,334.408295 276.264709,332.782593 
	C282.461639,326.084198 288.882355,319.591675 295.261719,313.063446 
	C304.311401,303.802612 313.276978,294.454742 322.509064,285.378601 
	C328.873077,279.122131 335.627411,273.262665 342.519897,267.113159 
	C342.249756,296.582794 328.387115,317.907135 302.273499,332.012329 
	C298.677948,333.427734 295.435211,334.969635 292.018524,335.723846 
	C286.028351,337.046112 279.931549,337.885529 273.439148,338.869812 
z"/>
<path fill="#2199DA" opacity="1.000000" stroke="none" 
	d="
M186.445740,338.895233 
	C188.931534,334.456482 191.245712,329.470490 194.888870,325.805542 
	C242.218964,278.192535 289.730469,230.759796 337.245483,183.330948 
	C338.601227,181.977615 340.499664,181.167923 342.487640,180.052429 
	C342.874512,182.702850 342.918793,185.405548 342.581787,188.668045 
	C340.565186,190.363617 338.735992,191.299652 337.325989,192.667725 
	C328.384186,201.343674 319.472015,210.052231 310.670502,218.870270 
	C298.231720,231.332413 285.910461,243.911804 273.514221,256.416565 
	C263.340210,266.679657 253.173691,276.950867 242.922333,287.136444 
	C234.439285,295.565094 225.605362,303.652710 217.354065,312.299042 
	C209.371445,320.663788 200.075104,327.990845 195.000122,338.828094 
	C192.297363,338.872742 189.594589,338.917389 186.445740,338.895233 
z"/>
<path fill="#209BDA" opacity="1.000000" stroke="none" 
	d="
M195.433868,338.895142 
	C200.075104,327.990845 209.371445,320.663788 217.354065,312.299042 
	C225.605362,303.652710 234.439285,295.565094 242.922333,287.136444 
	C253.173691,276.950867 263.340210,266.679657 273.514221,256.416565 
	C285.910461,243.911804 298.231720,231.332413 310.670502,218.870270 
	C319.472015,210.052231 328.384186,201.343674 337.325989,192.667725 
	C338.735992,191.299652 340.565186,190.363617 342.515533,189.114166 
	C342.874603,191.044846 342.918671,193.089172 342.896423,195.567322 
	C341.112579,197.275085 339.202759,198.356369 337.705627,199.851013 
	C295.747925,241.738922 253.795044,283.631897 211.972977,325.654999 
	C208.264999,329.380798 205.454269,333.999542 202.114044,338.516052 
	C199.956711,338.873077 197.912170,338.917633 195.433868,338.895142 
z"/>
<path fill="#2694DB" opacity="1.000000" stroke="none" 
	d="
M297.005493,191.779892 
	C299.503906,188.197006 301.595276,184.225052 304.577667,181.104782 
	C313.259277,172.021820 322.218384,163.198242 331.236237,154.445557 
	C334.653717,151.128540 338.528809,148.282974 342.512939,145.111862 
	C342.874695,151.358398 342.918793,157.715576 342.896545,164.537155 
	C340.999481,166.388412 338.985504,167.590179 337.367493,169.191925 
	C326.155640,180.291168 315.054779,191.502533 303.838287,202.597000 
	C302.227936,204.189880 300.187347,205.347794 297.999939,206.320862 
	C297.437866,201.216461 297.221680,196.498169 297.005493,191.779892 
z"/>
<path fill="#2A90DC" opacity="1.000000" stroke="none" 
	d="
M152.000183,338.828125 
	C143.976776,338.872620 135.953384,338.917114 127.579247,338.580444 
	C132.991119,328.753235 140.492538,320.933899 148.656799,313.461517 
	C158.312210,304.624329 166.917648,294.650787 176.192154,285.384003 
	C188.980286,272.606506 201.994202,260.055328 214.863068,247.358215 
	C225.017075,237.339737 235.183334,227.330688 245.158844,217.136124 
	C248.097610,214.132843 250.404877,210.511658 253.466064,207.108032 
	C261.954163,207.086166 269.977783,207.129929 277.948090,207.518127 
	C277.037567,209.241043 276.401764,210.841064 275.283691,211.958618 
	C271.066437,216.173935 266.588379,220.129562 262.395691,224.368118 
	C247.578583,239.347198 232.863113,254.426743 218.060654,269.420349 
	C209.908966,277.677277 201.681122,285.859436 193.449783,294.037201 
	C185.205765,302.227570 176.662476,310.134460 168.726852,318.611633 
	C162.760757,324.984894 157.548187,332.063507 152.000183,338.828125 
z"/>
<path fill="#2F8BDD" opacity="1.000000" stroke="none" 
	d="
M253.001556,207.173645 
	C250.404877,210.511658 248.097610,214.132843 245.158844,217.136124 
	C235.183334,227.330688 225.017075,237.339737 214.863068,247.358215 
	C201.994202,260.055328 188.980286,272.606506 176.192154,285.384003 
	C166.917648,294.650787 158.312210,304.624329 148.656799,313.461517 
	C140.492538,320.933899 132.991119,328.753235 127.114822,338.513977 
	C119.643936,338.873596 112.286728,338.918549 104.521782,338.555420 
	C108.695839,332.311981 112.897835,326.121063 117.948959,320.725037 
	C125.425011,312.738464 133.565765,305.378113 141.309677,297.637268 
	C150.230316,288.720215 158.953629,279.605438 167.895615,270.710236 
	C180.007996,258.661163 192.284256,246.776978 204.420685,234.751923 
	C216.323090,222.958786 228.106216,211.045166 240.028290,199.272110 
	C241.726654,197.594971 243.913498,196.412521 245.947418,195.457458 
	C246.020569,199.492889 246.020569,203.072006 246.020569,206.778030 
	C248.769592,206.933807 250.885559,207.053726 253.001556,207.173645 
z"/>
<path fill="#2694DB" opacity="1.000000" stroke="none" 
	d="
M152.464340,338.894562 
	C157.548187,332.063507 162.760757,324.984894 168.726852,318.611633 
	C176.662476,310.134460 185.205765,302.227570 193.449783,294.037201 
	C201.681122,285.859436 209.908966,277.677277 218.060654,269.420349 
	C232.863113,254.426743 247.578583,239.347198 262.395691,224.368118 
	C266.588379,220.129562 271.066437,216.173935 275.283691,211.958618 
	C276.401764,210.841064 277.037567,209.241043 278.412231,207.452240 
	C284.953796,207.056992 290.977936,207.072052 297.002075,207.087097 
	C295.498169,209.394547 294.341736,212.048203 292.438904,213.958267 
	C255.901474,250.634537 219.227951,287.175354 182.734146,323.894806 
	C178.443375,328.212097 175.041092,333.412384 171.114044,338.515808 
	C164.976959,338.872498 158.952728,338.916748 152.464340,338.894562 
z"/>
<path fill="#3388DD" opacity="1.000000" stroke="none" 
	d="
M245.874268,195.001129 
	C243.913498,196.412521 241.726654,197.594971 240.028290,199.272110 
	C228.106216,211.045166 216.323090,222.958786 204.420685,234.751923 
	C192.284256,246.776978 180.007996,258.661163 167.895615,270.710236 
	C158.953629,279.605438 150.230316,288.720215 141.309677,297.637268 
	C133.565765,305.378113 125.425011,312.738464 117.948959,320.725037 
	C112.897835,326.121063 108.695839,332.311981 104.057419,338.488556 
	C99.309044,338.875214 94.617279,338.920715 89.558258,338.571533 
	C90.829071,335.916260 92.204933,333.395844 94.146667,331.436127 
	C109.953339,315.482758 125.865807,299.634247 141.746124,283.753876 
	C169.272018,256.227905 196.831512,228.735245 224.245300,201.098053 
	C226.001602,199.327454 226.630188,196.438232 227.796844,193.966156 
	C227.810272,193.862946 228.013718,193.818893 228.390213,193.930222 
	C230.802399,192.903000 232.973938,191.950775 234.845154,190.586624 
	C238.608261,187.843292 242.207657,184.875381 245.948517,182.458298 
	C245.973022,186.944672 245.923630,190.972900 245.874268,195.001129 
z"/>
<path fill="#3684DE" opacity="1.000000" stroke="none" 
	d="
M65.382660,337.551605 
	C69.882874,331.653717 74.578865,325.754761 79.727226,320.281250 
	C85.960381,313.654510 92.578865,307.390381 99.025307,300.964050 
	C103.356453,296.646454 107.665291,292.306366 112.007713,288.000122 
	C118.121246,281.937500 124.264557,275.904877 130.380203,269.844360 
	C135.307968,264.961029 140.241928,260.083374 145.121887,255.152481 
	C151.177979,249.033218 157.155548,242.836227 163.216095,236.721436 
	C167.521011,232.378006 172.005707,228.209335 176.231384,223.791656 
	C181.219406,218.577026 186.014771,213.178131 191.406586,207.449432 
	C196.946701,206.757797 201.973877,206.475845 206.948242,206.535126 
	C205.944901,208.400925 205.232941,210.158752 204.006317,211.413376 
	C193.759491,221.894135 183.468140,232.332565 173.095535,242.688934 
	C142.923492,272.813873 112.690033,302.877319 82.558670,333.042786 
	C81.001297,334.601959 80.169472,336.885864 78.999847,338.832336 
	C74.592865,338.467896 70.185883,338.103485 65.382660,337.551605 
z"/>
<path fill="#3486DE" opacity="1.000000" stroke="none" 
	d="
M79.450012,338.899170 
	C80.169472,336.885864 81.001297,334.601959 82.558670,333.042786 
	C112.690033,302.877319 142.923492,272.813873 173.095535,242.688934 
	C183.468140,232.332565 193.759491,221.894135 204.006317,211.413376 
	C205.232941,210.158752 205.944901,208.400925 207.314850,206.419708 
	C215.587906,203.971771 222.325897,200.099854 227.783386,194.069382 
	C226.630188,196.438232 226.001602,199.327454 224.245300,201.098053 
	C196.831512,228.735245 169.272018,256.227905 141.746124,283.753876 
	C125.865807,299.634247 109.953339,315.482758 94.146667,331.436127 
	C92.204933,333.395844 90.829071,335.916260 89.096359,338.505066 
	C85.967880,338.877502 82.934029,338.921753 79.450012,338.899170 
z"/>
<path fill="#FBFBFE" opacity="1.000000" stroke="none" 
	d="
M69.403992,207.109665 
	C65.287720,207.121231 61.570087,207.161072 57.865448,206.960648 
	C56.591370,206.891724 55.349735,206.222992 53.982288,205.414017 
	C53.919487,197.309036 53.967674,189.618332 53.943436,181.463867 
	C53.919529,172.975906 53.968040,164.951706 53.943886,156.463776 
	C53.919701,147.976089 53.968182,139.952148 53.943932,131.464615 
	C54.691643,130.094879 55.512081,129.188736 56.665825,128.173431 
	C62.222466,128.482361 67.445801,128.900421 72.859406,129.659180 
	C72.993317,134.693588 72.936966,139.387329 72.965515,144.540527 
	C72.993912,150.692413 72.937416,156.384827 72.880638,163.000244 
	C72.935707,170.281906 72.991051,176.640549 72.961044,183.460464 
	C72.932777,189.614548 72.989876,195.307373 73.046967,201.000198 
	C71.934456,202.997131 74.853432,207.154892 69.403992,207.109665 
z"/>
<path fill="#FCFDFF" opacity="1.000000" stroke="none" 
	d="
M227.796829,193.966156 
	C222.325897,200.099854 215.587906,203.971771 207.367661,206.078491 
	C201.973877,206.475845 196.946701,206.757797 191.460052,207.105804 
	C184.310287,207.128113 177.620010,207.084351 170.465302,207.106445 
	C169.355240,205.905304 168.209305,204.660492 168.151993,203.367432 
	C167.924255,198.229202 168.036377,193.075882 168.024429,187.001312 
	C167.976761,176.716782 167.927261,167.359085 167.951614,157.537750 
	C167.975952,149.049210 167.926422,141.024307 167.876907,132.999390 
	C168.276581,130.906189 167.345642,127.860413 171.627930,128.174561 
	C180.725784,128.307190 189.451157,128.545380 198.588745,128.805847 
	C207.057159,128.635315 214.430115,130.780624 221.442825,135.437302 
	C225.431976,140.526245 229.090637,145.467499 232.963409,151.090637 
	C234.014450,158.845566 234.851410,165.918564 235.516678,173.393066 
	C232.901230,180.469345 230.457474,187.144119 228.013733,193.818893 
	C228.013718,193.818893 227.810272,193.862946 227.796829,193.966156 
M212.775620,151.358337 
	C205.827225,142.845367 196.400177,144.450424 187.036438,144.467743 
	C187.036438,155.395691 187.036438,165.698288 186.866516,176.922058 
	C186.866516,181.509018 186.866516,186.095993 186.866516,191.078979 
	C197.197433,190.721100 208.123962,193.194473 213.728226,182.400391 
	C218.841919,172.551193 219.004257,161.998047 212.775620,151.358337 
z"/>
<path fill="#FDFDFF" opacity="1.000000" stroke="none" 
	d="
M90.456161,207.104736 
	C87.217827,207.170746 84.435364,207.170746 81.271202,207.170746 
	C82.926315,202.363083 84.410713,198.051300 86.088097,193.052414 
	C89.238083,183.261856 92.195076,174.158417 95.391663,164.786911 
	C98.989807,154.344666 102.348358,144.170471 105.706909,133.996292 
	C107.072914,131.960144 106.315063,128.217453 110.648712,128.176910 
	C117.947563,128.199722 124.894936,128.329056 132.292587,128.501587 
	C134.254059,132.992218 135.765244,137.439667 137.520905,142.180603 
	C139.046295,146.454315 140.327255,150.434525 141.836639,155.084564 
	C144.225296,161.898163 146.385544,168.041916 148.626541,174.562592 
	C151.092346,181.640823 153.477386,188.342148 155.862442,195.043457 
	C156.897858,198.828003 157.933258,202.612564 159.144501,207.039856 
	C154.469086,207.039856 150.195709,207.039856 145.461639,207.105621 
	C139.701324,208.103500 137.467575,205.363419 136.634232,200.516907 
	C136.284271,198.481674 135.220306,196.569199 134.286377,194.297974 
	C134.332443,191.201920 133.003021,190.133194 130.265488,190.169174 
	C123.621185,190.256516 116.968346,190.045303 110.335114,190.330429 
	C108.996292,190.387970 107.132446,191.834015 106.550064,193.113144 
	C105.256149,195.955048 104.365730,199.048264 103.779999,202.128250 
	C103.011299,206.170364 100.911896,207.663910 96.884697,207.058655 
	C94.936813,206.765915 92.905548,207.027908 90.456161,207.104736 
M126.968666,169.654007 
	C124.767128,161.667725 122.565590,153.681458 120.364059,145.695175 
	C120.072479,145.761124 119.780907,145.827072 119.489326,145.893005 
	C117.011475,155.794601 114.533630,165.696198 112.034912,175.681183 
	C117.702187,175.681183 122.912903,175.681183 128.545929,175.681183 
	C128.001129,173.653778 127.576210,172.072525 126.968666,169.654007 
z"/>
<path fill="#FBFDFE" opacity="1.000000" stroke="none" 
	d="
M245.947418,195.457443 
	C245.923630,190.972900 245.973022,186.944672 246.022369,181.997238 
	C245.973953,176.386154 245.925568,171.694275 245.951996,166.538849 
	C245.977219,158.049744 245.927658,150.024185 245.878082,141.998642 
	C245.878082,137.714645 245.878082,133.430649 245.878082,128.271805 
	C249.618439,128.271805 252.863663,128.271805 256.554199,128.168549 
	C264.789429,128.775726 264.788177,128.775726 264.823395,136.646362 
	C264.827057,137.464203 264.856659,138.281906 264.960999,139.549988 
	C264.989349,147.692657 264.931000,155.385025 264.959595,163.539093 
	C264.973785,172.315796 264.790009,180.633255 264.975922,188.942459 
	C264.997925,189.926910 267.043060,190.866104 268.576324,191.747269 
	C278.024902,191.729797 287.047546,191.791336 296.537842,191.816376 
	C297.221680,196.498169 297.437866,201.216461 297.649811,206.389420 
	C297.645599,206.844101 297.285187,206.863235 297.143646,206.975159 
	C290.977936,207.072052 284.953796,207.056992 278.465515,207.107819 
	C269.977783,207.129929 261.954163,207.086166 253.466064,207.108017 
	C250.885559,207.053726 248.769592,206.933807 246.020569,206.778030 
	C246.020569,203.072006 246.020569,199.492889 245.947418,195.457443 
z"/>
<path fill="#3A83DF" opacity="1.000000" stroke="none" 
	d="
M245.544464,142.068726 
	C245.927658,150.024185 245.977219,158.049744 245.606812,166.589478 
	C242.020660,169.066315 238.854507,171.028946 235.688354,172.991577 
	C234.851410,165.918564 234.014450,158.845566 233.161942,151.385895 
	C237.167877,148.045776 241.189377,145.092300 245.544464,142.068726 
z"/>
<path fill="#5266E4" opacity="1.000000" stroke="none" 
	d="
M105.372292,134.051910 
	C102.348358,144.170471 98.989807,154.344666 95.028122,164.824371 
	C92.289955,166.580124 89.990952,167.840714 88.051720,169.517410 
	C82.966194,173.914490 78.037560,178.492996 73.046402,182.999207 
	C72.991051,176.640549 72.935707,170.281906 72.965332,163.461517 
	C74.781738,161.751404 76.704620,160.698425 78.212082,159.221466 
	C85.465149,152.115051 92.561363,144.848450 99.823700,137.751724 
	C101.319939,136.289597 103.287407,135.309692 105.372292,134.051910 
z"/>
<path fill="#4872E2" opacity="1.000000" stroke="none" 
	d="
M148.545792,174.185669 
	C146.385544,168.041916 144.225296,161.898163 142.062073,155.377197 
	C147.746170,149.793274 153.379639,144.526169 159.144943,139.407562 
	C161.687256,137.150421 164.497284,135.194809 167.531342,133.050842 
	C167.926422,141.024307 167.975952,149.049210 167.619934,157.631744 
	C165.650986,159.352066 164.000824,160.415817 162.540115,161.695740 
	C157.837738,165.816147 153.205246,170.016296 148.545792,174.185669 
z"/>
<path fill="#4377E1" opacity="1.000000" stroke="none" 
	d="
M148.626541,174.562592 
	C153.205246,170.016296 157.837738,165.816147 162.540115,161.695740 
	C164.000824,160.415817 165.650986,159.352066 167.546082,158.095367 
	C167.927261,167.359085 167.976761,176.716782 167.951523,186.538025 
	C165.514603,188.569962 163.136139,190.114548 160.796249,191.715515 
	C159.343628,192.709427 157.949509,193.788834 156.195770,194.936661 
	C153.477386,188.342148 151.092346,181.640823 148.626541,174.562592 
z"/>
<path fill="#516BE4" opacity="1.000000" stroke="none" 
	d="
M72.961044,183.460464 
	C78.037560,178.492996 82.966194,173.914490 88.051720,169.517410 
	C89.990952,167.840714 92.289955,166.580124 94.788528,165.092438 
	C92.195076,174.158417 89.238083,183.261856 86.091232,192.682419 
	C81.832024,195.594193 77.762680,198.188858 73.370155,200.891876 
	C72.989876,195.307373 72.932777,189.614548 72.961044,183.460464 
z"/>
<path fill="#3486DE" opacity="1.000000" stroke="none" 
	d="
M235.516663,173.393066 
	C238.854507,171.028946 242.020660,169.066315 245.532013,167.053040 
	C245.925568,171.694275 245.973953,176.386154 245.948471,181.539078 
	C242.207657,184.875381 238.608261,187.843292 234.845154,190.586624 
	C232.973938,191.950775 230.802399,192.903000 228.390228,193.930222 
	C230.457474,187.144119 232.901230,180.469345 235.516663,173.393066 
z"/>
<path fill="#3D7FE0" opacity="1.000000" stroke="none" 
	d="
M212.944122,152.022522 
	C219.004257,161.998047 218.841919,172.551193 213.728226,182.400391 
	C208.123962,193.194473 197.197433,190.721100 186.866516,191.078979 
	C186.866516,186.095993 186.866516,181.509018 187.288803,176.370544 
	C189.869080,174.317032 192.293945,173.085098 194.136703,171.264114 
	C200.515182,164.960907 206.691101,158.452698 212.944122,152.022522 
z"/>
<path fill="#427BE0" opacity="1.000000" stroke="none" 
	d="
M212.859863,151.690430 
	C206.691101,158.452698 200.515182,164.960907 194.136703,171.264114 
	C192.293945,173.085098 189.869080,174.317032 187.373764,175.909943 
	C187.036438,165.698288 187.036438,155.395691 187.036438,144.467743 
	C196.400177,144.450424 205.827225,142.845367 212.859863,151.690430 
z"/>
<path fill="#5171E4" opacity="1.000000" stroke="none" 
	d="
M127.059982,170.072632 
	C127.576210,172.072525 128.001129,173.653778 128.545929,175.681183 
	C122.912903,175.681183 117.702187,175.681183 112.034912,175.681183 
	C114.533630,165.696198 117.011475,155.794601 119.489326,145.893005 
	C119.780907,145.827072 120.072479,145.761124 120.364059,145.695175 
	C122.565590,153.681458 124.767128,161.667725 127.059982,170.072632 
z"/>
</svg>